<svg width="800" height="420" viewBox="0 0 800 420" fill="none" xmlns="http://www.w3.org/2000/svg">
  <rect width="800" height="420" fill="#433E37"/>
  <rect x="0" y="0" width="800" height="420" fill="url(#paint0_linear)"/>
  <rect x="540" y="20" width="214" height="300" fill="#E5E1D8"/>
  <rect x="560" y="42" width="174" height="258" fill="#CBD2D0"/>
  <rect x="49" y="89" width="267" height="214" fill="#3B352D"/>
  <rect x="330" y="86" width="170" height="210" fill="#4B453D"/>
  <rect x="89" y="218" width="130" height="68" fill="#C7A67A"/>
  <rect x="228" y="207" width="52" height="79" fill="#997451"/>
  <rect x="357" y="218" width="107" height="68" fill="#C6A47A"/>
  <rect x="104" y="114" width="93" height="72" fill="#24211D"/>
  <rect x="210" y="114" width="93" height="72" fill="#2A2622"/>
  <rect x="357" y="113" width="95" height="84" fill="#2F2A24"/>
  <circle cx="170" cy="88" r="16" fill="#F9D89F"/>
  <circle cx="256" cy="88" r="16" fill="#F9D89F"/>
  <circle cx="404" cy="88" r="16" fill="#F9D89F"/>
  <path d="M90 0C122 31 145 57 159 79" stroke="#7DBF7A" stroke-width="10" stroke-linecap="round"/>
  <path d="M717 0C690 28 670 53 657 76" stroke="#7DBF7A" stroke-width="10" stroke-linecap="round"/>
  <path d="M184 0C206 25 220 47 226 67" stroke="#6FB06B" stroke-width="8" stroke-linecap="round"/>
  <defs>
    <linearGradient id="paint0_linear" x1="400" y1="0" x2="400" y2="420" gradientUnits="userSpaceOnUse">
      <stop stop-color="#5E574D"/>
      <stop offset="1" stop-color="#322E29"/>
    </linearGradient>
  </defs>
</svg>
