<svg width="1440" height="920" viewBox="0 0 1440 920" fill="none" xmlns="http://www.w3.org/2000/svg">
  <rect width="1440" height="920" fill="url(#paint0_linear_66_2)"/>
  <ellipse cx="1180" cy="98" rx="214" ry="153" fill="url(#paint1_radial_66_2)" fill-opacity="0.9"/>
  <rect y="620" width="1440" height="300" fill="url(#paint2_linear_66_2)"/>
  <path d="M0 710H1440V920H0V710Z" fill="url(#paint3_linear_66_2)"/>
  <path d="M0 780H1440V920H0V780Z" fill="#425E1E"/>
  <path d="M0 820H1440V920H0V820Z" fill="#2B3B15"/>
  <path d="M628 490H815V650H628V490Z" fill="#F0F1EC"/>
  <path d="M672 398H773V490H672V398Z" fill="#2B3641"/>
  <path d="M694 325H751V398H694V325Z" fill="#334554"/>
  <path d="M717 226H730V325H717V226Z" fill="#B49E67"/>
  <path d="M599 507H843V543H599V507Z" fill="#1F2B37"/>
  <path d="M606 543H836V570H606V543Z" fill="#E8EBE2"/>
  <path d="M573 545H867V650H573V545Z" fill="#F8F9F4"/>
  <path d="M573 590H867V650H573V590Z" fill="#F0F1EC"/>
  <path d="M548 580H892V601H548V580Z" fill="#D9DCCF"/>
  <path d="M541 602H899V650H541V602Z" fill="#F5F6EF"/>
  <path d="M683 531H757V650H683V531Z" fill="#DADED5"/>
  <path d="M650 543H677V650H650V543Z" fill="#D2D7CF"/>
  <path d="M763 543H790V650H763V543Z" fill="#D2D7CF"/>
  <path d="M623 611H649V650H623V611Z" fill="#D2D7CF"/>
  <path d="M791 611H817V650H791V611Z" fill="#D2D7CF"/>
  <path d="M704 555L739 650H669L704 555Z" fill="#D3D9D1"/>
  <rect x="694" y="604" width="54" height="46" fill="#293540"/>
  <path d="M705 531H735V553H705V531Z" fill="#27323D"/>
  <path d="M180 665C198 559 283 485 394 485C505 485 590 559 608 665H180Z" fill="#AFC1A0"/>
  <path d="M0 665H1440V733H0V665Z" fill="#6A7E34"/>
  <path d="M0 727H1440V805H0V727Z" fill="#41591B"/>
  <path d="M0 805H1440V920H0V805Z" fill="#263611"/>
  <path d="M391 665L509 920H274L391 665Z" fill="#475848" fill-opacity="0.45"/>
  <path d="M390 665L471 920H310L390 665Z" fill="#33453D" fill-opacity="0.35"/>
  <path d="M930 665L1052 920H808L930 665Z" fill="#475848" fill-opacity="0.4"/>
  <path d="M929 665L1004 920H854L929 665Z" fill="#33453D" fill-opacity="0.35"/>
  <path d="M688 682H755V920H688V682Z" fill="#516255" fill-opacity="0.35"/>
  <path d="M705 682H737V920H705V682Z" fill="#34443E" fill-opacity="0.32"/>
  <path d="M0 688C119 688 157 628 241 628C328 628 349 678 433 678C525 678 559 635 657 635C758 635 785 694 878 694C976 694 1023 624 1127 624C1230 624 1263 676 1440 676V688H0Z" fill="#274E68" fill-opacity="0.28"/>
  <path d="M105 848C197 834 267 810 335 810C404 810 468 847 541 847C620 847 668 814 740 814C802 814 873 846 945 846C1014 846 1085 808 1171 808C1262 808 1344 846 1440 846V920H105V848Z" fill="#6A2430"/>
  <path d="M0 0H1440V238C1326 250 1189 253 1040 253C883 253 723 241 579 241C382 241 178 262 0 286V0Z" fill="url(#paint4_linear_66_2)" fill-opacity="0.35"/>
  <g opacity="0.92">
    <path d="M146 558C140 504 156 474 184 445C204 424 211 392 207 352C247 376 266 429 263 474C294 462 330 469 361 496C305 499 275 525 264 565L146 558Z" fill="#2E5539"/>
    <path d="M253 561C248 513 256 482 282 454C302 433 308 398 304 360C336 387 353 430 353 470C377 462 408 469 432 495C384 499 357 520 348 562L253 561Z" fill="#355E41"/>
  </g>
  <g opacity="0.9">
    <path d="M1150 589C1144 537 1158 507 1183 480C1201 460 1207 430 1203 393C1239 414 1257 460 1254 499C1283 488 1315 496 1341 520C1292 525 1265 548 1256 588L1150 589Z" fill="#2C5338"/>
    <path d="M1260 589C1257 545 1264 515 1286 491C1304 472 1309 442 1305 407C1333 429 1349 467 1348 504C1368 497 1396 503 1418 525C1374 529 1349 548 1340 589H1260Z" fill="#355E41"/>
  </g>
  <path d="M717 224C726 224 733 217 733 208C733 199 726 192 717 192C708 192 701 199 701 208C701 217 708 224 717 224Z" fill="#F8B236"/>
  <defs>
    <linearGradient id="paint0_linear_66_2" x1="720" y1="0" x2="720" y2="920" gradientUnits="userSpaceOnUse">
      <stop stop-color="#315880"/>
      <stop offset="0.45" stop-color="#5479A6"/>
      <stop offset="1" stop-color="#C8D8C0"/>
    </linearGradient>
    <radialGradient id="paint1_radial_66_2" cx="0" cy="0" r="1" gradientUnits="userSpaceOnUse" gradientTransform="translate(1180 98) rotate(90) scale(153 214)">
      <stop stop-color="#A9C6FF"/>
      <stop offset="1" stop-color="#A9C6FF" stop-opacity="0"/>
    </radialGradient>
    <linearGradient id="paint2_linear_66_2" x1="720" y1="620" x2="720" y2="920" gradientUnits="userSpaceOnUse">
      <stop stop-color="#789243"/>
      <stop offset="1" stop-color="#334117"/>
    </linearGradient>
    <linearGradient id="paint3_linear_66_2" x1="720" y1="710" x2="720" y2="920" gradientUnits="userSpaceOnUse">
      <stop stop-color="#6A812F"/>
      <stop offset="1" stop-color="#24330F"/>
    </linearGradient>
    <linearGradient id="paint4_linear_66_2" x1="720" y1="0" x2="720" y2="286" gradientUnits="userSpaceOnUse">
      <stop stop-color="#0D2D47"/>
      <stop offset="1" stop-color="#0D2D47" stop-opacity="0"/>
    </linearGradient>
  </defs>
</svg>
