<svg width="480" height="540" viewBox="0 0 480 540" fill="none" xmlns="http://www.w3.org/2000/svg">
  <ellipse cx="240" cy="498" rx="108" ry="20" fill="#395161" fill-opacity="0.2"/>
  <path d="M163 194C147 162 152 112 187 85C204 71 223 66 239 66C256 66 278 72 295 89C326 120 330 170 313 202L163 194Z" fill="#9B5E2B"/>
  <path d="M151 170C132 145 120 119 117 93C144 95 171 104 197 120L182 171L151 170Z" fill="#C68846"/>
  <path d="M326 170C344 148 357 121 360 95C332 96 305 105 279 121L295 170L326 170Z" fill="#C68846"/>
  <path d="M164 162C157 149 145 140 131 136C145 126 160 124 175 127L164 162Z" fill="#8A5325"/>
  <path d="M314 163C321 149 333 140 347 136C333 126 318 124 303 127L314 163Z" fill="#8A5325"/>
  <ellipse cx="240" cy="199" rx="92" ry="103" fill="#F53B3B"/>
  <path d="M188 265C203 281 220 289 240 289C260 289 277 281 292 265" stroke="#842424" stroke-width="10" stroke-linecap="round"/>
  <circle cx="199" cy="200" r="25" fill="white"/>
  <circle cx="281" cy="200" r="25" fill="white"/>
  <circle cx="205" cy="204" r="11" fill="#1E1E1E"/>
  <circle cx="287" cy="204" r="11" fill="#1E1E1E"/>
  <circle cx="200" cy="200" r="4" fill="white"/>
  <circle cx="282" cy="200" r="4" fill="white"/>
  <path d="M210 164C197 158 183 158 169 163" stroke="#612020" stroke-width="8" stroke-linecap="round"/>
  <path d="M311 164C298 158 284 158 270 163" stroke="#612020" stroke-width="8" stroke-linecap="round"/>
  <path d="M236 201C228 215 228 230 238 241" stroke="#B52A2A" stroke-width="8" stroke-linecap="round"/>
  <path d="M174 166L147 130" stroke="#6B3D18" stroke-width="22" stroke-linecap="round"/>
  <path d="M306 166L333 130" stroke="#6B3D18" stroke-width="22" stroke-linecap="round"/>
  <path d="M163 162C178 145 199 131 223 125" stroke="#DBA96A" stroke-width="16" stroke-linecap="round"/>
  <path d="M318 162C303 145 282 131 258 125" stroke="#DBA96A" stroke-width="16" stroke-linecap="round"/>
  <path d="M137 353C137 309 174 274 218 274H262C306 274 343 309 343 353V434H137V353Z" fill="#232323"/>
  <path d="M127 333C127 299 155 271 189 271H201C169 290 149 323 149 360V434H127V333Z" fill="#2E2E2E"/>
  <path d="M353 333C353 299 325 271 291 271H279C311 290 331 323 331 360V434H353V333Z" fill="#2E2E2E"/>
  <path d="M205 282L178 439H228L219 282H205Z" fill="#14528E"/>
  <path d="M226 282L236 439H278L250 282H226Z" fill="#14528E"/>
  <path d="M193 297L277 401" stroke="#D1A64E" stroke-width="10"/>
  <path d="M183 340L287 362" stroke="#D1A64E" stroke-width="10"/>
  <path d="M276 317L302 440" stroke="#E4E5E7" stroke-width="18" stroke-linecap="round"/>
  <path d="M304 438C323 438 339 426 339 412C339 398 323 386 304 386C285 386 269 398 269 412C269 426 285 438 304 438Z" fill="#F4F5F7"/>
  <path d="M176 440C198 440 216 429 216 416C216 403 198 392 176 392C154 392 136 403 136 416C136 429 154 440 176 440Z" fill="#252525"/>
  <path d="M304 440C326 440 344 429 344 416C344 403 326 392 304 392C282 392 264 403 264 416C264 429 282 440 304 440Z" fill="#252525"/>
  <path d="M198 434V500" stroke="#F53B3B" stroke-width="30" stroke-linecap="round"/>
  <path d="M286 434V500" stroke="#F53B3B" stroke-width="30" stroke-linecap="round"/>
  <path d="M175 500H221" stroke="#252525" stroke-width="26" stroke-linecap="round"/>
  <path d="M263 500H309" stroke="#252525" stroke-width="26" stroke-linecap="round"/>
  <path d="M170 321C162 302 143 287 122 281C123 325 139 356 168 372L170 321Z" fill="#232323"/>
  <path d="M310 321C318 302 337 287 358 281C357 325 341 356 312 372L310 321Z" fill="#232323"/>
  <path d="M193 333L217 360L240 333L263 360L286 333" stroke="#F6D8D8" stroke-width="16" stroke-linecap="round" stroke-linejoin="round"/>
  <path d="M184 347L172 421" stroke="#F53B3B" stroke-width="22" stroke-linecap="round"/>
  <path d="M296 347L308 421" stroke="#F53B3B" stroke-width="22" stroke-linecap="round"/>
  <path d="M171 427C161 389 184 354 220 354H260C296 354 319 389 309 427H171Z" fill="#101010"/>
</svg>
