<svg width="640" height="480" viewBox="0 0 640 480" fill="none" xmlns="http://www.w3.org/2000/svg">
  <rect width="640" height="480" fill="#8FC9F5"/>
  <path d="M0 321C98 311 157 301 214 301C283 301 332 321 400 321C473 321 540 297 640 267V480H0V321Z" fill="#73B44D"/>
  <path d="M0 354H640V480H0V354Z" fill="#65A63F"/>
  <path d="M84 222H273V355H84V222Z" fill="#EFE1CC"/>
  <path d="M84 221L177 150L273 221H84Z" fill="#774C34"/>
  <path d="M115 255H160V355H115V255Z" fill="#6A4330"/>
  <path d="M176 255H238V300H176V255Z" fill="#DFEEF5"/>
  <path d="M296 204H468V355H296V204Z" fill="#E9DDCA"/>
  <path d="M296 204L382 146L468 204H296Z" fill="#925C3A"/>
  <path d="M326 248H370V355H326V248Z" fill="#6A4330"/>
  <path d="M391 246H436V291H391V246Z" fill="#D7EDF7"/>
  <path d="M468 242H581V355H468V242Z" fill="#F1E5D4"/>
  <path d="M468 242L526 201L581 242H468Z" fill="#875536"/>
  <path d="M492 275H554V355H492V275Z" fill="#DBEDF8"/>
  <path d="M36 359C105 332 163 325 216 325C272 325 343 343 391 343C454 343 509 325 599 312L640 480H0L36 359Z" fill="#83C45D"/>
  <path d="M50 390C88 370 123 362 160 362C203 362 233 378 272 378C318 378 362 363 409 363C462 363 505 382 554 382C590 382 620 373 640 362V480H0L50 390Z" fill="#D5B890"/>
  <circle cx="560" cy="91" r="34" fill="#F8F5B8"/>
  <path d="M22 263C45 249 62 248 81 259C74 286 57 303 29 317L22 263Z" fill="#477E39"/>
  <path d="M580 254C603 240 620 239 639 250C633 276 618 293 592 308L580 254Z" fill="#4C833D"/>
</svg>
