<svg width="640" height="480" viewBox="0 0 640 480" fill="none" xmlns="http://www.w3.org/2000/svg">
  <rect width="640" height="480" fill="url(#paint0_linear)"/>
  <path d="M0 303C113 257 177 230 248 230C334 230 423 278 520 278C565 278 606 267 640 249V480H0V303Z" fill="url(#paint1_linear)"/>
  <path d="M0 312C79 271 145 260 202 260C277 260 343 299 426 299C505 299 575 278 640 232V480H0V312Z" fill="#2893A4"/>
  <path d="M0 0H640V196C594 210 555 214 525 214C458 214 393 178 321 178C229 178 130 234 0 279V0Z" fill="url(#paint2_linear)"/>
  <path d="M142 111C199 104 250 121 296 154C349 191 402 226 458 243C396 255 341 244 289 218C245 196 194 190 142 200V111Z" fill="#756057"/>
  <path d="M85 61C132 54 176 65 217 95C251 120 276 148 302 176C255 163 218 154 174 155C140 155 109 161 85 171V61Z" fill="#615048"/>
  <path d="M324 101C389 88 450 110 505 159C545 196 576 232 610 273C530 255 465 230 414 194C376 168 347 153 324 145V101Z" fill="#8A756E"/>
  <path d="M236 91C262 76 304 68 356 74C405 79 452 101 495 140C442 124 393 115 346 115C303 115 267 121 236 133V91Z" fill="#9A847C"/>
  <ellipse cx="441" cy="102" rx="135" ry="96" fill="url(#paint3_radial)"/>
  <ellipse cx="357" cy="86" rx="99" ry="68" fill="url(#paint4_radial)"/>
  <path d="M505 291C527 268 548 263 573 274C565 306 541 332 504 353L505 291Z" fill="#2A2D22"/>
  <path d="M471 284C494 261 512 255 536 266C531 299 510 323 476 347L471 284Z" fill="#1F241A"/>
  <path d="M506 304L513 480" stroke="#1F1F1F" stroke-width="4"/>
  <path d="M476 292L481 480" stroke="#1F1F1F" stroke-width="3"/>
  <defs>
    <linearGradient id="paint0_linear" x1="320" y1="0" x2="320" y2="480" gradientUnits="userSpaceOnUse">
      <stop stop-color="#BDECF3"/>
      <stop offset="1" stop-color="#55B3C3"/>
    </linearGradient>
    <linearGradient id="paint1_linear" x1="320" y1="230" x2="320" y2="480" gradientUnits="userSpaceOnUse">
      <stop stop-color="#7FC6CF"/>
      <stop offset="1" stop-color="#19889B"/>
    </linearGradient>
    <linearGradient id="paint2_linear" x1="320" y1="0" x2="320" y2="279" gradientUnits="userSpaceOnUse">
      <stop stop-color="#D8EEF1"/>
      <stop offset="1" stop-color="#B1D7DF" stop-opacity="0"/>
    </linearGradient>
    <radialGradient id="paint3_radial" cx="0" cy="0" r="1" gradientUnits="userSpaceOnUse" gradientTransform="translate(441 102) rotate(90) scale(96 135)">
      <stop stop-color="#F9FFFF" stop-opacity="0.96"/>
      <stop offset="1" stop-color="#F9FFFF" stop-opacity="0"/>
    </radialGradient>
    <radialGradient id="paint4_radial" cx="0" cy="0" r="1" gradientUnits="userSpaceOnUse" gradientTransform="translate(357 86) rotate(90) scale(68 99)">
      <stop stop-color="white"/>
      <stop offset="1" stop-color="white" stop-opacity="0"/>
    </radialGradient>
  </defs>
</svg>
