<svg width="640" height="480" viewBox="0 0 640 480" fill="none" xmlns="http://www.w3.org/2000/svg">
  <rect width="640" height="480" fill="#CFDAB4"/>
  <path d="M0 286C96 252 181 238 265 238C367 238 474 276 558 276C587 276 614 272 640 264V480H0V286Z" fill="#AE8B57"/>
  <path d="M0 344H640V480H0V344Z" fill="#A37645"/>
  <ellipse cx="165" cy="287" rx="66" ry="56" fill="#9A6A3D"/>
  <ellipse cx="165" cy="292" rx="49" ry="41" fill="#82562E"/>
  <ellipse cx="165" cy="276" rx="38" ry="25" fill="#B98551"/>
  <circle cx="136" cy="263" r="7" fill="#82562E"/>
  <circle cx="193" cy="263" r="7" fill="#82562E"/>
  <ellipse cx="286" cy="302" rx="55" ry="48" fill="#916034"/>
  <ellipse cx="285" cy="307" rx="42" ry="34" fill="#7C512B"/>
  <circle cx="262" cy="282" r="7" fill="#704624"/>
  <circle cx="309" cy="282" r="7" fill="#704624"/>
  <ellipse cx="405" cy="293" rx="59" ry="50" fill="#A97546"/>
  <ellipse cx="405" cy="297" rx="44" ry="35" fill="#8B5D31"/>
  <circle cx="381" cy="273" r="7" fill="#704624"/>
  <circle cx="428" cy="273" r="7" fill="#704624"/>
  <ellipse cx="519" cy="306" rx="54" ry="45" fill="#997042"/>
  <ellipse cx="519" cy="311" rx="40" ry="31" fill="#7F552E"/>
  <path d="M0 105C69 92 128 86 184 86C259 86 336 99 432 99C522 99 582 88 640 77V201C613 210 583 215 549 215C476 215 386 190 276 190C183 190 93 211 0 240V105Z" fill="url(#paint0_linear)"/>
  <path d="M22 107C51 96 78 98 104 112C93 137 72 152 41 164L22 107Z" fill="#A7BA79"/>
  <path d="M581 110C608 99 628 101 640 108V165C625 156 609 149 591 144L581 110Z" fill="#A6B878"/>
  <defs>
    <linearGradient id="paint0_linear" x1="320" y1="77" x2="320" y2="240" gradientUnits="userSpaceOnUse">
      <stop stop-color="#DCE6C4"/>
      <stop offset="1" stop-color="#DCE6C4" stop-opacity="0"/>
    </linearGradient>
  </defs>
</svg>
