<svg width="640" height="480" viewBox="0 0 640 480" fill="none" xmlns="http://www.w3.org/2000/svg">
  <rect width="640" height="480" fill="#09121E"/>
  <path d="M0 162C58 141 132 131 214 131C322 131 425 148 519 148C564 148 605 144 640 136V480H0V162Z" fill="url(#paint0_linear)"/>
  <path d="M0 353H640V480H0V353Z" fill="#1C1728"/>
  <path d="M48 138H189V353H48V138Z" fill="#15192E"/>
  <path d="M209 102H319V353H209V102Z" fill="#1B2140"/>
  <path d="M345 122H454V353H345V122Z" fill="#141E38"/>
  <path d="M476 144H595V353H476V144Z" fill="#162036"/>
  <path d="M59 160H178V189H59V160Z" fill="#FBCB45"/>
  <path d="M218 128H309V157H218V128Z" fill="#F95C72"/>
  <path d="M353 146H445V175H353V146Z" fill="#46D1F3"/>
  <path d="M489 168H584V197H489V168Z" fill="#9F6CF7"/>
  <circle cx="95" cy="235" r="36" fill="#F8BC3D"/>
  <circle cx="266" cy="221" r="52" fill="#F3588F"/>
  <circle cx="394" cy="234" r="41" fill="#35CDE4"/>
  <circle cx="531" cy="252" r="45" fill="#8861F2"/>
  <path d="M0 87C57 64 114 54 168 54C242 54 306 70 374 70C475 70 545 48 640 34V129C611 136 576 140 536 140C440 140 337 122 221 122C143 122 73 129 0 149V87Z" fill="url(#paint1_linear)"/>
  <defs>
    <linearGradient id="paint0_linear" x1="320" y1="136" x2="320" y2="480" gradientUnits="userSpaceOnUse">
      <stop stop-color="#151E2B"/>
      <stop offset="0.3" stop-color="#321E5E"/>
      <stop offset="0.7" stop-color="#0A3650"/>
      <stop offset="1" stop-color="#150E1C"/>
    </linearGradient>
    <linearGradient id="paint1_linear" x1="320" y1="34" x2="320" y2="149" gradientUnits="userSpaceOnUse">
      <stop stop-color="#0A1522"/>
      <stop offset="1" stop-color="#0A1522" stop-opacity="0"/>
    </linearGradient>
  </defs>
</svg>
